<svg xmlns="http://www.w3.org/2000/svg" xmlns:xlink="http://www.w3.org/1999/xlink" id="visual" version="1.1" viewBox="0 0 960 200.73"><path d="M0 179L22.8 173.7C45.7 168.3 91.3 157.7 137 163.8C182.7 170 228.3 193 274 199C319.7 205 365.3 194 411.2 186.7C457 179.3 503 175.7 548.8 175.3C594.7 175 640.3 178 686 182.2C731.7 186.3 777.3 191.7 823 190.8C868.7 190 914.3 183 937.2 179.5L960 176L960 0L937.2 0C914.3 0 868.7 0 823 0C777.3 0 731.7 0 686 0C640.3 0 594.7 0 548.8 0C503 0 457 0 411.2 0C365.3 0 319.7 0 274 0C228.3 0 182.7 0 137 0C91.3 0 45.7 0 22.8 0L0 0Z" fill="#fa7268"/><path d="M0 130L22.8 136.2C45.7 142.3 91.3 154.7 137 158.5C182.7 162.3 228.3 157.7 274 152.3C319.7 147 365.3 141 411.2 133.2C457 125.3 503 115.7 548.8 115.5C594.7 115.3 640.3 124.7 686 133.3C731.7 142 777.3 150 823 150.3C868.7 150.7 914.3 143.3 937.2 139.7L960 136L960 0L937.2 0C914.3 0 868.7 0 823 0C777.3 0 731.7 0 686 0C640.3 0 594.7 0 548.8 0C503 0 457 0 411.2 0C365.3 0 319.7 0 274 0C228.3 0 182.7 0 137 0C91.3 0 45.7 0 22.8 0L0 0Z" fill="#ef5f67"/><path d="M0 110L22.8 108.3C45.7 106.7 91.3 103.3 137 103.2C182.7 103 228.3 106 274 112.5C319.7 119 365.3 129 411.2 131C457 133 503 127 548.8 122.3C594.7 117.7 640.3 114.3 686 114.7C731.7 115 777.3 119 823 117.8C868.7 116.7 914.3 110.3 937.2 107.2L960 104L960 0L937.2 0C914.3 0 868.7 0 823 0C777.3 0 731.7 0 686 0C640.3 0 594.7 0 548.8 0C503 0 457 0 411.2 0C365.3 0 319.7 0 274 0C228.3 0 182.7 0 137 0C91.3 0 45.7 0 22.8 0L0 0Z" fill="#e34c67"/><path d="M0 83L22.8 82C45.7 81 91.3 79 137 75.8C182.7 72.7 228.3 68.3 274 68.2C319.7 68 365.3 72 411.2 71.3C457 70.7 503 65.3 548.8 66.5C594.7 67.7 640.3 75.3 686 77C731.7 78.7 777.3 74.3 823 75.7C868.7 77 914.3 84 937.2 87.5L960 91L960 0L937.2 0C914.3 0 868.7 0 823 0C777.3 0 731.7 0 686 0C640.3 0 594.7 0 548.8 0C503 0 457 0 411.2 0C365.3 0 319.7 0 274 0C228.3 0 182.7 0 137 0C91.3 0 45.7 0 22.8 0L0 0Z" fill="#d53867"/><path d="M0 55L22.8 54.3C45.7 53.7 91.3 52.3 137 50.5C182.7 48.7 228.3 46.3 274 46.3C319.7 46.3 365.3 48.7 411.2 47.3C457 46 503 41 548.8 41.8C594.7 42.7 640.3 49.3 686 53C731.7 56.7 777.3 57.3 823 55C868.7 52.7 914.3 47.3 937.2 44.7L960 42L960 0L937.2 0C914.3 0 868.7 0 823 0C777.3 0 731.7 0 686 0C640.3 0 594.7 0 548.8 0C503 0 457 0 411.2 0C365.3 0 319.7 0 274 0C228.3 0 182.7 0 137 0C91.3 0 45.7 0 22.8 0L0 0Z" fill="#c62368"/></svg>